<mxfile host="app.diagrams.net" agent="Mozilla/5.0 (Windows NT 10.0; Win64; x64) AppleWebKit/537.36 (KHTML, like Gecko) Chrome/133.0.0.0 Safari/537.36 Avast/133.0.0.0" version="26.1.3">
  <diagram name="Page-1" id="L_e7yTvRXg8Vd2vKUfft">
    <mxGraphModel dx="683" dy="373" grid="1" gridSize="10" guides="1" tooltips="1" connect="1" arrows="1" fold="1" page="1" pageScale="1" pageWidth="827" pageHeight="1169" math="0" shadow="0">
      <root>
        <mxCell id="0" />
        <mxCell id="1" parent="0" />
        <mxCell id="TopxvmhcqRU4W3nKjWyD-1" value="Clients&lt;div&gt;&lt;br&gt;&lt;/div&gt;" style="shape=umlActor;verticalLabelPosition=bottom;verticalAlign=top;html=1;outlineConnect=0;" vertex="1" parent="1">
          <mxGeometry x="120" y="80" width="30" height="60" as="geometry" />
        </mxCell>
        <mxCell id="TopxvmhcqRU4W3nKjWyD-3" value="Employé(e)s" style="shape=umlActor;verticalLabelPosition=bottom;verticalAlign=top;html=1;outlineConnect=0;" vertex="1" parent="1">
          <mxGeometry x="120" y="220" width="30" height="60" as="geometry" />
        </mxCell>
        <mxCell id="TopxvmhcqRU4W3nKjWyD-4" value="" style="swimlane;startSize=0;" vertex="1" parent="1">
          <mxGeometry x="220" y="20" width="310" height="310" as="geometry" />
        </mxCell>
        <mxCell id="TopxvmhcqRU4W3nKjWyD-5" value="Réserver" style="ellipse;whiteSpace=wrap;html=1;" vertex="1" parent="TopxvmhcqRU4W3nKjWyD-4">
          <mxGeometry x="10" y="60" width="130" height="30" as="geometry" />
        </mxCell>
        <mxCell id="TopxvmhcqRU4W3nKjWyD-6" value="Créer/Modifier les réservations" style="ellipse;whiteSpace=wrap;html=1;" vertex="1" parent="TopxvmhcqRU4W3nKjWyD-4">
          <mxGeometry x="10" y="150" width="130" height="30" as="geometry" />
        </mxCell>
        <mxCell id="TopxvmhcqRU4W3nKjWyD-7" value="Créer/Modifier les clients" style="ellipse;whiteSpace=wrap;html=1;" vertex="1" parent="TopxvmhcqRU4W3nKjWyD-4">
          <mxGeometry x="10" y="200" width="130" height="30" as="geometry" />
        </mxCell>
        <mxCell id="TopxvmhcqRU4W3nKjWyD-8" value="Créer/Modifier les chambres" style="ellipse;whiteSpace=wrap;html=1;" vertex="1" parent="TopxvmhcqRU4W3nKjWyD-4">
          <mxGeometry x="10" y="250" width="130" height="30" as="geometry" />
        </mxCell>
        <mxCell id="TopxvmhcqRU4W3nKjWyD-18" value="Voir la disponibilité des chambres" style="ellipse;whiteSpace=wrap;html=1;" vertex="1" parent="TopxvmhcqRU4W3nKjWyD-4">
          <mxGeometry x="10" y="100" width="130" height="30" as="geometry" />
        </mxCell>
        <mxCell id="TopxvmhcqRU4W3nKjWyD-21" value="S&#39;identifier" style="ellipse;whiteSpace=wrap;html=1;" vertex="1" parent="TopxvmhcqRU4W3nKjWyD-4">
          <mxGeometry x="180" y="130" width="130" height="30" as="geometry" />
        </mxCell>
        <mxCell id="TopxvmhcqRU4W3nKjWyD-22" value="" style="endArrow=open;html=1;rounded=0;strokeColor=default;dashed=1;endFill=0;" edge="1" parent="TopxvmhcqRU4W3nKjWyD-4" source="TopxvmhcqRU4W3nKjWyD-5" target="TopxvmhcqRU4W3nKjWyD-21">
          <mxGeometry width="50" height="50" relative="1" as="geometry">
            <mxPoint x="60" y="130" as="sourcePoint" />
            <mxPoint x="110" y="80" as="targetPoint" />
          </mxGeometry>
        </mxCell>
        <mxCell id="TopxvmhcqRU4W3nKjWyD-26" value="Includes" style="edgeLabel;html=1;align=center;verticalAlign=middle;resizable=0;points=[];" vertex="1" connectable="0" parent="TopxvmhcqRU4W3nKjWyD-22">
          <mxGeometry x="0.2427" relative="1" as="geometry">
            <mxPoint as="offset" />
          </mxGeometry>
        </mxCell>
        <mxCell id="TopxvmhcqRU4W3nKjWyD-23" value="Se créer un compte" style="ellipse;whiteSpace=wrap;html=1;" vertex="1" parent="TopxvmhcqRU4W3nKjWyD-4">
          <mxGeometry x="10" y="20" width="130" height="30" as="geometry" />
        </mxCell>
        <mxCell id="TopxvmhcqRU4W3nKjWyD-31" value="" style="endArrow=open;html=1;rounded=0;strokeColor=default;dashed=1;endFill=0;" edge="1" parent="TopxvmhcqRU4W3nKjWyD-4" source="TopxvmhcqRU4W3nKjWyD-7" target="TopxvmhcqRU4W3nKjWyD-21">
          <mxGeometry width="50" height="50" relative="1" as="geometry">
            <mxPoint x="150" y="206" as="sourcePoint" />
            <mxPoint x="256" y="250" as="targetPoint" />
          </mxGeometry>
        </mxCell>
        <mxCell id="TopxvmhcqRU4W3nKjWyD-32" value="Includes" style="edgeLabel;html=1;align=center;verticalAlign=middle;resizable=0;points=[];" vertex="1" connectable="0" parent="TopxvmhcqRU4W3nKjWyD-31">
          <mxGeometry x="0.2427" relative="1" as="geometry">
            <mxPoint as="offset" />
          </mxGeometry>
        </mxCell>
        <mxCell id="TopxvmhcqRU4W3nKjWyD-33" value="" style="endArrow=open;html=1;rounded=0;strokeColor=default;dashed=1;endFill=0;" edge="1" parent="TopxvmhcqRU4W3nKjWyD-4" source="TopxvmhcqRU4W3nKjWyD-6" target="TopxvmhcqRU4W3nKjWyD-21">
          <mxGeometry width="50" height="50" relative="1" as="geometry">
            <mxPoint x="147" y="128" as="sourcePoint" />
            <mxPoint x="253" y="172" as="targetPoint" />
          </mxGeometry>
        </mxCell>
        <mxCell id="TopxvmhcqRU4W3nKjWyD-34" value="Includes" style="edgeLabel;html=1;align=center;verticalAlign=middle;resizable=0;points=[];" vertex="1" connectable="0" parent="TopxvmhcqRU4W3nKjWyD-33">
          <mxGeometry x="0.2427" relative="1" as="geometry">
            <mxPoint as="offset" />
          </mxGeometry>
        </mxCell>
        <mxCell id="TopxvmhcqRU4W3nKjWyD-35" value="" style="endArrow=open;html=1;rounded=0;strokeColor=default;dashed=1;endFill=0;" edge="1" parent="TopxvmhcqRU4W3nKjWyD-4" source="TopxvmhcqRU4W3nKjWyD-8" target="TopxvmhcqRU4W3nKjWyD-21">
          <mxGeometry width="50" height="50" relative="1" as="geometry">
            <mxPoint x="180" y="220" as="sourcePoint" />
            <mxPoint x="286" y="264" as="targetPoint" />
          </mxGeometry>
        </mxCell>
        <mxCell id="TopxvmhcqRU4W3nKjWyD-36" value="Includes" style="edgeLabel;html=1;align=center;verticalAlign=middle;resizable=0;points=[];" vertex="1" connectable="0" parent="TopxvmhcqRU4W3nKjWyD-35">
          <mxGeometry x="0.2427" relative="1" as="geometry">
            <mxPoint as="offset" />
          </mxGeometry>
        </mxCell>
        <mxCell id="TopxvmhcqRU4W3nKjWyD-9" value="" style="endArrow=none;html=1;rounded=0;" edge="1" parent="1" source="TopxvmhcqRU4W3nKjWyD-6" target="TopxvmhcqRU4W3nKjWyD-3">
          <mxGeometry width="50" height="50" relative="1" as="geometry">
            <mxPoint x="250" y="250" as="sourcePoint" />
            <mxPoint x="300" y="200" as="targetPoint" />
          </mxGeometry>
        </mxCell>
        <mxCell id="TopxvmhcqRU4W3nKjWyD-10" value="" style="endArrow=none;html=1;rounded=0;" edge="1" parent="1" source="TopxvmhcqRU4W3nKjWyD-7" target="TopxvmhcqRU4W3nKjWyD-3">
          <mxGeometry width="50" height="50" relative="1" as="geometry">
            <mxPoint x="453" y="142" as="sourcePoint" />
            <mxPoint x="530" y="107" as="targetPoint" />
          </mxGeometry>
        </mxCell>
        <mxCell id="TopxvmhcqRU4W3nKjWyD-11" value="" style="endArrow=none;html=1;rounded=0;" edge="1" parent="1" source="TopxvmhcqRU4W3nKjWyD-8" target="TopxvmhcqRU4W3nKjWyD-3">
          <mxGeometry width="50" height="50" relative="1" as="geometry">
            <mxPoint x="496.5" y="215" as="sourcePoint" />
            <mxPoint x="560" y="200" as="targetPoint" />
          </mxGeometry>
        </mxCell>
        <mxCell id="TopxvmhcqRU4W3nKjWyD-13" value="" style="shape=flexArrow;endArrow=classic;html=1;rounded=0;spacing=2;strokeWidth=1;width=1;" edge="1" parent="1" source="TopxvmhcqRU4W3nKjWyD-3">
          <mxGeometry width="50" height="50" relative="1" as="geometry">
            <mxPoint x="290" y="90" as="sourcePoint" />
            <mxPoint x="135" y="170" as="targetPoint" />
          </mxGeometry>
        </mxCell>
        <mxCell id="TopxvmhcqRU4W3nKjWyD-16" value="" style="endArrow=none;html=1;rounded=0;" edge="1" parent="1" source="TopxvmhcqRU4W3nKjWyD-1" target="TopxvmhcqRU4W3nKjWyD-5">
          <mxGeometry width="50" height="50" relative="1" as="geometry">
            <mxPoint x="250" y="250" as="sourcePoint" />
            <mxPoint x="300" y="200" as="targetPoint" />
          </mxGeometry>
        </mxCell>
        <mxCell id="TopxvmhcqRU4W3nKjWyD-19" value="" style="endArrow=none;html=1;rounded=0;" edge="1" parent="1" source="TopxvmhcqRU4W3nKjWyD-1" target="TopxvmhcqRU4W3nKjWyD-18">
          <mxGeometry width="50" height="50" relative="1" as="geometry">
            <mxPoint x="250" y="250" as="sourcePoint" />
            <mxPoint x="300" y="200" as="targetPoint" />
          </mxGeometry>
        </mxCell>
        <mxCell id="TopxvmhcqRU4W3nKjWyD-24" value="" style="endArrow=none;html=1;rounded=0;" edge="1" parent="1" source="TopxvmhcqRU4W3nKjWyD-1" target="TopxvmhcqRU4W3nKjWyD-23">
          <mxGeometry width="50" height="50" relative="1" as="geometry">
            <mxPoint x="160" y="122" as="sourcePoint" />
            <mxPoint x="251" y="137" as="targetPoint" />
          </mxGeometry>
        </mxCell>
      </root>
    </mxGraphModel>
  </diagram>
</mxfile>
